<svg id="Logo" xmlns="http://www.w3.org/2000/svg" width="198.133" height="41.154" viewBox="0 0 198.133 41.154">
  <text id="Menu_One" data-name="Menu One" transform="translate(174.133)" fill="#fff" font-size="14" font-family="Sora-Light, Sora" font-weight="300"><tspan x="7" y="14">®</tspan></text>
  <g id="Group_59" data-name="Group 59" transform="translate(0 10.839)">
    <g id="Group_55" data-name="Group 55" transform="translate(40.954 1.064)">
      <path id="Path_561" data-name="Path 561" d="M1961.45,2072.865a3.355,3.355,0,1,0,0,6.709h3.6a3.355,3.355,0,1,0,0-6.709Z" transform="translate(-1949.192 -2061.601)" fill="#fff"/>
      <path id="Path_562" data-name="Path 562" d="M1962.106,2078.146h-10.874v-15.732h10.874a3.356,3.356,0,0,0,0-6.712h-13.965c-.088-.007-.175-.012-.264-.012a3.355,3.355,0,0,0-3.356,3.355v22.527a3.355,3.355,0,0,0,3.356,3.357,3.3,3.3,0,0,0,.69-.073h13.539a3.355,3.355,0,1,0,0-6.709Z" transform="translate(-1944.521 -2055.69)" fill="#fff"/>
    </g>
    <g id="Group_56" data-name="Group 56" transform="translate(111.497 1.1)">
      <path id="Path_563" data-name="Path 563" d="M2069.07,2070.477a3.356,3.356,0,0,0-3.355,3.356v12.793a3.355,3.355,0,1,0,6.71,0v-12.793A3.356,3.356,0,0,0,2069.07,2070.477Z" transform="translate(-2056.776 -2060.815)" fill="#fff"/>
      <path id="Path_564" data-name="Path 564" d="M2073.319,2055.744H2055.44a3.355,3.355,0,1,0,0,6.711h17.879a3.355,3.355,0,1,0,0-6.711Z" transform="translate(-2052.085 -2055.744)" fill="#fff"/>
    </g>
    <g id="Group_57" data-name="Group 57">
      <path id="Path_565" data-name="Path 565" d="M1918.541,2054.412a3.353,3.353,0,0,0-4.49,1.533l-4.344,8.971a3.355,3.355,0,1,0,6.025,2.955l4.344-8.97A3.354,3.354,0,0,0,1918.541,2054.412Z" transform="translate(-1891.468 -2054.068)" fill="#fff"/>
      <path id="Path_566" data-name="Path 566" d="M1888.444,2055.946a3.355,3.355,0,0,0-6.024,2.956l11.048,22.527a3.355,3.355,0,1,0,6.025-2.955Z" transform="translate(-1882.076 -2054.068)" fill="#fff"/>
    </g>
    <path id="Path_567" data-name="Path 567" d="M2116.968,2054.069a14.62,14.62,0,1,0,14.618,14.62A14.637,14.637,0,0,0,2116.968,2054.069Zm0,22.528a7.908,7.908,0,1,1,7.907-7.908A7.917,7.917,0,0,1,2116.968,2076.6Z" transform="translate(-1957.885 -2054.068)" fill="#fff"/>
    <g id="Group_58" data-name="Group 58" transform="translate(75.378 1.051)">
      <path id="Path_568" data-name="Path 568" d="M2024.623,2089.658l-2.851-1.629a3.355,3.355,0,1,0-3.381,5.8l2.851,1.631a3.356,3.356,0,0,0,3.381-5.8Z" transform="translate(-2003.796 -2066.649)" fill="#fff"/>
      <path id="Path_569" data-name="Path 569" d="M2013.011,2074.947a9.652,9.652,0,0,0,.072-19.247c-.167-.012-3.987-.023-12.691-.03h0a3.355,3.355,0,0,0,0,6.71c2.981,0,11.459.009,12.242.017a2.942,2.942,0,0,1-.028,5.85c-.751.007-9.23.012-12.214.014a3.45,3.45,0,0,0-3.375,3.437v9.88a3.356,3.356,0,1,0,6.711,0v-6.608C2010.03,2074.964,2012.878,2074.956,2013.011,2074.947Z" transform="translate(-1997.011 -2055.67)" fill="#fff"/>
    </g>
  </g>
</svg>
